<svg version="1.1" xmlns="http://www.w3.org/2000/svg" xmlns:xlink="http://www.w3.org/1999/xlink" width="500.000000pt" height="500.000000pt" viewBox="0,0,256,256"><g transform=""><g fill="#000000" fill-rule="nonzero" stroke="none" stroke-width="1" stroke-linecap="butt" stroke-linejoin="miter" stroke-miterlimit="10" stroke-dasharray="" stroke-dashoffset="0" font-family="none" font-weight="none" font-size="none" text-anchor="none" style="mix-blend-mode: normal"><path d="M128,241.92c-62.91628,0 -113.92,-51.00372 -113.92,-113.92v0c0,-62.91628 51.00372,-113.92 113.92,-113.92v0c62.91628,0 113.92,51.00372 113.92,113.92v0c0,62.91628 -51.00372,113.92 -113.92,113.92z" id="shape"></path></g><g fill="#ffffff" fill-rule="nonzero" stroke="none" stroke-width="1" stroke-linecap="butt" stroke-linejoin="miter" stroke-miterlimit="10" stroke-dasharray="" stroke-dashoffset="0" font-family="none" font-weight="none" font-size="none" text-anchor="none" style="mix-blend-mode: normal"><g transform="translate(0,0)"><g><g transform="translate(-1.2632,9.83996) scale(0.512,0.512)"><g transform="translate(0,500) scale(0.1,-0.1)"><path d="M2497,4454c-4,-4 -7,-49 -7,-99c0,-72 3,-95 16,-106c11,-9 20,-10 32,-2c14,8 17,28 17,109c0,99 0,99 -25,102c-14,2 -29,0 -33,-4z"></path><path d="M2170,4221c-14,-27 -15,-27 31,-76c45,-49 72,-56 89,-24c10,18 5,27 -38,70c-54,54 -66,58 -82,30z"></path><path d="M2795,4190c-41,-42 -48,-53 -39,-68c20,-31 45,-26 90,19c48,47 55,72 25,89c-26,13 -20,16 -76,-40z"></path><path d="M1467,4143c-4,-3 -7,-15 -7,-25c0,-31 70,-252 84,-267c24,-24 50,-4 75,59c13,33 27,57 31,55c4,-2 15,-26 25,-52c10,-26 22,-54 28,-61c13,-16 47,-12 58,8c19,36 78,260 73,274c-3,9 -16,16 -29,16c-20,0 -26,-11 -50,-87l-27,-88l-23,46c-44,85 -71,86 -112,5l-26,-51l-13,52c-22,85 -41,123 -62,123c-10,0 -22,-3 -25,-7z"></path><path d="M2357,4002c-81,-81 -147,-154 -147,-163c0,-15 300,-319 315,-319c17,0 315,305 315,322c0,25 -289,307 -315,308c-13,0 -74,-54 -168,-148z"></path><path d="M3310,4131c-15,-29 -13,-196 4,-236c26,-62 118,-85 184,-45c44,27 52,54 52,174c0,105 -7,126 -42,126c-28,0 -38,-33 -38,-132c0,-100 -7,-118 -47,-118c-34,0 -43,29 -43,132c0,60 -4,98 -12,106c-18,18 -46,14 -58,-7z"></path><path d="M2124,4046c-11,-29 0,-51 26,-51c21,0 25,5 25,30c0,24 -5,31 -23,33c-13,2 -24,-3 -28,-12z"></path><path d="M2871,4046c-21,-25 -4,-58 27,-54c23,2 27,8 27,33c0,23 -5,31 -21,33c-11,2 -26,-4 -33,-12z"></path><path d="M1921,3852c-6,-11 -6,-24 0,-35c15,-26 174,-25 188,1c6,11 6,24 0,35c-15,26 -174,25 -188,-1z"></path><path d="M2951,3856c-9,-11 -10,-20 -1,-35c9,-19 20,-21 94,-21c64,0 87,4 97,16c9,11 10,20 2,32c-14,24 -174,30 -192,8z"></path><path d="M1355,3654c-102,-23 -174,-65 -256,-152c-182,-191 -184,-407 -5,-623c30,-37 72,-79 94,-95l40,-29l-38,-75c-51,-102 -135,-329 -162,-437c-27,-112 -29,-295 -5,-396c82,-333 356,-566 714,-607c200,-23 439,35 660,161l53,30l-109,94c-59,51 -124,112 -144,135l-35,42l-76,-26c-212,-74 -398,-45 -521,79c-112,114 -147,265 -110,482c21,117 68,288 80,288c6,0 88,-26 182,-58l173,-59l10,-41c56,-221 207,-465 414,-673c333,-332 683,-491 1002,-454c226,25 411,121 541,280c62,75 136,219 158,305c20,80 29,214 21,307l-8,77l-26,-10c-47,-18 -162,-39 -210,-38c-26,0 -80,6 -119,13l-73,13v-96c0,-159 -39,-259 -134,-349c-66,-62 -116,-87 -208,-102c-142,-22 -279,19 -463,139c-71,46 -268,236 -408,393c-43,48 -110,114 -150,146c-141,114 -385,237 -571,287c-49,14 -93,28 -98,33c-5,5 5,60 23,128c43,158 44,245 5,329c-15,33 -37,71 -49,84c-71,76 -227,81 -304,9c-26,-24 -30,-48 -8,-48c55,0 95,-52 95,-125c0,-50 -55,-195 -74,-195c-6,0 -34,16 -62,35c-74,51 -99,106 -99,215c0,73 4,94 29,147c34,75 95,134 174,171c49,23 70,27 147,27c78,0 98,-4 148,-29c32,-15 80,-50 107,-76c87,-88 123,-193 140,-415c14,-168 17,-185 33,-185c35,0 297,-127 393,-190l31,-20l-47,278c-53,309 -70,383 -107,456c-103,206 -269,354 -458,407c-95,27 -241,33 -330,13z"></path><path d="M2132,3661c-8,-4 -12,-19 -10,-32c2,-18 9,-24 28,-24c21,0 25,5 25,30c0,31 -19,42 -43,26z"></path><path d="M2870,3656c-27,-33 18,-72 48,-42c13,13 14,20 6,34c-15,23 -38,26 -54,8z"></path><path d="M3475,3664c-11,-3 -47,-9 -80,-15c-125,-23 -276,-121 -377,-243c-113,-137 -174,-296 -198,-520c-32,-300 -89,-512 -170,-632c-57,-84 -57,-78 2,-141c59,-63 236,-223 247,-223c17,0 114,145 154,230c47,99 92,232 103,301c4,21 10,41 14,44c3,2 30,-15 59,-39c29,-24 70,-53 92,-65l39,-22v33c-1,28 -8,38 -55,70c-29,21 -70,58 -90,83c-32,39 -36,49 -31,82c3,21 13,135 21,253c9,118 20,233 26,255c31,117 142,246 247,285c129,49 299,3 383,-103c62,-78 82,-124 87,-202c5,-84 -9,-143 -45,-186c-31,-37 -100,-89 -118,-89c-14,0 -57,92 -75,158c-7,30 -8,53 0,80c12,46 33,67 77,79c30,7 32,10 20,32c-27,54 -146,85 -232,61c-62,-17 -119,-80 -141,-156c-12,-43 -15,-80 -11,-148c5,-93 11,-118 95,-405l48,-165l55,-18c88,-31 184,-34 265,-9c103,31 101,28 71,102c-14,35 -52,123 -84,194l-59,130l59,50c155,130 225,292 198,459c-7,39 -23,94 -36,123c-31,68 -142,178 -220,220c-91,48 -252,74 -340,57z"></path><path d="M2213,3525c-46,-48 -52,-65 -29,-84c19,-16 64,6 100,49c29,35 32,50 14,68c-21,21 -40,13 -85,-33z"></path><path d="M2750,3549c-10,-17 -6,-27 27,-64c45,-51 70,-63 90,-42c18,18 13,30 -40,86c-42,46 -61,51 -77,20z"></path><path d="M2497,3424c-4,-4 -7,-53 -7,-109c0,-110 9,-133 50,-120c20,6 20,13 18,118c-3,112 -3,112 -28,115c-14,2 -29,0 -33,-4z"></path><path d="M2507,2971c-25,-70 -71,-128 -127,-159c-27,-15 -50,-30 -50,-33c0,-4 14,-12 31,-19c43,-18 113,-91 141,-148l24,-49l29,55c35,67 81,114 137,143l42,22l-48,23c-69,33 -82,48 -125,135l-37,77z"></path><path d="M770,2642c-19,-8 -62,-25 -95,-37c-49,-17 -60,-25 -60,-44c0,-19 14,-28 94,-61l93,-40l27,19c14,11 39,33 55,50l30,31l-40,41c-53,55 -63,59 -104,41z"></path><path d="M4180,2609l-55,-49l53,-51c29,-28 58,-48 65,-45c6,3 50,21 96,40c122,50 125,68 20,105c-30,11 -70,26 -89,34l-35,15z"></path><path d="M2465,1181l-44,-90l42,-83c55,-108 68,-109 119,-8c20,41 37,82 38,91c0,28 -79,179 -95,179c-9,0 -33,-36 -60,-89z"></path></g></g></g></g></g></g></svg>